<svg width="40" height="40" viewBox="0 0 40 40" fill="none" xmlns="http://www.w3.org/2000/svg">
<path d="M18.3334 8.33333C18.3334 7.55836 18.3334 7.17087 18.4186 6.85295C18.6497 5.99022 19.3236 5.31635 20.1863 5.08519C20.5042 5 20.8917 5 21.6667 5H26.6667C27.4417 5 27.8292 5 28.1471 5.08519C29.0098 5.31635 29.6837 5.99022 29.9149 6.85295C30 7.17087 30 7.55836 30 8.33333C30 9.10831 30 9.4958 29.9149 9.81371C29.6837 10.6764 29.0098 11.3503 28.1471 11.5815C27.8292 11.6667 27.4417 11.6667 26.6667 11.6667V16.67C27.5944 16.6812 28.1574 16.7293 28.6415 16.9372C29.1971 17.1758 29.6773 17.561 30.0307 18.0515C30.4314 18.6077 30.597 19.3528 30.9281 20.843L32.963 30H33.3334C34.1084 30 34.4958 30 34.8138 30.0852C35.6765 30.3164 36.3504 30.9902 36.5815 31.853C36.6667 32.1709 36.6667 32.5584 36.6667 33.3333C36.6667 34.1083 36.6667 34.4958 36.5815 34.8137C36.3504 35.6764 35.6765 36.3503 34.8138 36.5815C34.4959 36.6667 34.1084 36.6667 33.3335 36.6667H6.66671C5.89173 36.6667 5.50424 36.6667 5.18633 36.5815C4.3236 36.3503 3.64973 35.6764 3.41856 34.8137C3.33337 34.4958 3.33337 34.1083 3.33337 33.3333C3.33337 32.5584 3.33337 32.1709 3.41856 31.853C3.64973 30.9902 4.3236 30.3164 5.18633 30.0852C5.50424 30 5.89173 30 6.66671 30H7.03708L9.07196 20.843C9.40311 19.3528 9.56869 18.6077 9.96939 18.0515C10.3228 17.561 10.803 17.1758 11.3586 16.9372C11.9885 16.6667 12.7517 16.6667 14.2783 16.6667H23.3334V11.6667H21.6667C20.8917 11.6667 20.5042 11.6667 20.1863 11.5815C19.3236 11.3503 18.6497 10.6764 18.4186 9.81371C18.3334 9.4958 18.3334 9.10831 18.3334 8.33333Z" fill="#27AE60"/>
<path d="M11.6666 20H18.3333V26.6667H11.6666V20Z" fill="#D3F1DA"/>
<path d="M21.6666 20H28.3333V22.5H21.6666V20Z" fill="#D3F1DA"/>
<path d="M20.8334 7.08325H27.5V9.58325H20.8334V7.08325Z" fill="#D3F1DA"/>
<path d="M21.6666 24.1667L28.3333 24.1667V26.6667H21.6666V24.1667Z" fill="#D3F1DA"/>
</svg>
