<svg width="40" height="40" viewBox="0 0 40 40" fill="none" xmlns="http://www.w3.org/2000/svg">
<path d="M11.3334 33.3334C8.53311 33.3334 7.13298 33.3334 6.06342 32.7884C5.12261 32.3091 4.35771 31.5442 3.87834 30.6034C3.33337 29.5338 3.33337 28.1337 3.33337 25.3334L3.33337 14.6667C3.33337 11.8665 3.33337 10.4664 3.87834 9.3968C4.35771 8.45599 5.12261 7.69108 6.06342 7.21172C7.13298 6.66675 8.53311 6.66675 11.3334 6.66675L28.6667 6.66675C31.467 6.66675 32.8671 6.66675 33.9367 7.21172C34.8775 7.69108 35.6424 8.45598 36.1217 9.3968C36.6667 10.4664 36.6667 11.8665 36.6667 14.6667V25.3334C36.6667 28.1337 36.6667 29.5338 36.1217 30.6034C35.6424 31.5442 34.8775 32.3091 33.9367 32.7884C32.8671 33.3334 31.467 33.3334 28.6667 33.3334H11.3334Z" fill="#27AE60"/>
<path d="M28.3322 10H11.6655C10.7451 10 9.99886 10.7462 9.99886 11.6667C9.99886 12.5871 9.25267 13.3333 8.33219 13.3333C7.41172 13.3333 6.66553 14.0795 6.66553 15V25C6.66553 25.9205 7.41172 26.6667 8.33219 26.6667C9.25267 26.6667 9.99886 27.4129 9.99886 28.3333C9.99886 29.2538 10.7451 30 11.6655 30H28.3322C29.2527 30 29.9989 29.2538 29.9989 28.3333C29.9989 27.4129 30.7451 26.6667 31.6655 26.6667C32.586 26.6667 33.3322 25.9205 33.3322 25V15C33.3322 14.0795 32.586 13.3333 31.6655 13.3333C30.7451 13.3333 29.9989 12.5871 29.9989 11.6667C29.9989 10.7462 29.2527 10 28.3322 10Z" fill="#D3F1DA"/>
<path d="M25 14.1667H15L15 16.6667H25V14.1667Z" fill="#27AE60"/>
<path d="M15 18.3334H25V20.8332H21.6675V26.6672H18.3341V20.8332H15V18.3334Z" fill="#27AE60"/>
</svg>
