<svg width="34" height="30" viewBox="0 0 34 30" fill="none" xmlns="http://www.w3.org/2000/svg">
<path d="M11.1037 3.21617L0.95175 20.0879C-1.69199 24.464 1.4805 30 6.55647 30H26.8604C31.9363 30 35.1088 24.464 32.4651 20.0879L22.3131 3.21617C19.7752 -1.05448 13.6417 -1.05448 11.1037 3.21617ZM21.097 3.95431L31.3019 20.8787C32.7295 23.2513 31.0375 26.3093 28.2351 26.3093H7.82547C5.02311 26.3093 3.27824 23.2513 4.75873 20.8787L14.9636 3.95431C16.3383 1.63445 19.7223 1.63445 21.097 3.95431Z" fill="#DAAB6B"/>
<path d="M17.0786 7.48681L10.3106 18.717C9.25311 20.4569 10.5221 22.6713 12.5313 22.6713H26.0673C28.0765 22.6713 29.3455 20.4569 28.288 18.717L21.52 7.48681C20.5154 5.79964 18.0832 5.79964 17.0786 7.48681ZM21.4672 10.1757L25.9086 17.5044C26.3316 18.1898 25.8029 19.0334 25.0627 19.0334H16.1797C15.3866 19.0334 14.9107 18.1898 15.3337 17.5044L19.7752 10.1757C20.1453 9.49033 21.097 9.49033 21.4672 10.1757Z" fill="#DAAB6B"/>
<path d="M11.1037 3.21617L0.95175 20.0879C-1.69199 24.464 1.4805 30 6.55647 30H26.8604C31.9363 30 35.1088 24.464 32.4651 20.0879L22.3131 3.21617C19.7752 -1.05448 13.6417 -1.05448 11.1037 3.21617ZM21.097 3.95431L31.3019 20.8787C32.7295 23.2513 31.0375 26.3093 28.2351 26.3093H7.82547C5.02311 26.3093 3.27824 23.2513 4.75873 20.8787L14.9636 3.95431C16.3383 1.63445 19.7223 1.63445 21.097 3.95431Z" fill="#DAAB6B"/>
<path d="M17.0784 7.48657L10.3104 18.7168C9.25292 20.4567 10.5219 22.6711 12.5312 22.6711H26.0671C28.0763 22.6711 29.3453 20.4567 28.2878 18.7168L21.5199 7.48657C20.5152 5.7994 18.083 5.7994 17.0784 7.48657ZM21.467 10.1755L25.9085 17.5041C26.3315 18.1896 25.8027 19.0331 25.0625 19.0331H16.1795C15.3864 19.0331 14.9105 18.1896 15.3335 17.5041L19.775 10.1755C20.1451 9.49008 21.0969 9.49008 21.467 10.1755Z" fill="#DAAB6B"/>
</svg>
