<svg width="206" height="30" viewBox="0 0 206 30" fill="none" xmlns="http://www.w3.org/2000/svg">
<g clip-path="url(#clip0_10_394)">
<path d="M11.1037 3.21617L0.95175 20.0879C-1.69199 24.464 1.4805 30 6.55647 30H26.8604C31.9363 30 35.1088 24.464 32.4651 20.0879L22.3131 3.21617C19.7752 -1.05448 13.6417 -1.05448 11.1037 3.21617ZM21.097 3.95431L31.3019 20.8787C32.7295 23.2513 31.0375 26.3093 28.2351 26.3093H7.82547C5.02311 26.3093 3.27824 23.2513 4.75873 20.8787L14.9636 3.95431C16.3383 1.63445 19.7223 1.63445 21.097 3.95431Z" fill="#DAAB6B"/>
<path d="M17.0786 7.48681L10.3106 18.717C9.25311 20.4569 10.5221 22.6713 12.5313 22.6713H26.0673C28.0765 22.6713 29.3455 20.4569 28.288 18.717L21.52 7.48681C20.5154 5.79964 18.0832 5.79964 17.0786 7.48681ZM21.4672 10.1757L25.9086 17.5044C26.3316 18.1898 25.8029 19.0334 25.0627 19.0334H16.1797C15.3866 19.0334 14.9107 18.1898 15.3337 17.5044L19.7752 10.1757C20.1453 9.49033 21.097 9.49033 21.4672 10.1757Z" fill="#DAAB6B"/>
<path d="M11.1037 3.21617L0.95175 20.0879C-1.69199 24.464 1.4805 30 6.55647 30H26.8604C31.9363 30 35.1088 24.464 32.4651 20.0879L22.3131 3.21617C19.7752 -1.05448 13.6417 -1.05448 11.1037 3.21617ZM21.097 3.95431L31.3019 20.8787C32.7295 23.2513 31.0375 26.3093 28.2351 26.3093H7.82547C5.02311 26.3093 3.27824 23.2513 4.75873 20.8787L14.9636 3.95431C16.3383 1.63445 19.7223 1.63445 21.097 3.95431Z" fill="#DAAB6B"/>
<path d="M17.0784 7.48657L10.3104 18.7168C9.25292 20.4567 10.5219 22.6711 12.5312 22.6711H26.0671C28.0763 22.6711 29.3453 20.4567 28.2878 18.7168L21.5199 7.48657C20.5152 5.7994 18.083 5.7994 17.0784 7.48657ZM21.467 10.1755L25.9085 17.5041C26.3315 18.1896 25.8027 19.0331 25.0625 19.0331H16.1795C15.3864 19.0331 14.9105 18.1896 15.3335 17.5041L19.775 10.1755C20.1451 9.49008 21.0969 9.49008 21.467 10.1755Z" fill="#DAAB6B"/>
<path d="M48.8563 22.4604C46.6355 22.4604 44.7849 21.775 43.3573 20.3515C41.9297 18.9279 41.2423 17.1353 41.2423 14.9209C41.2423 12.7065 41.9826 10.9139 43.4102 9.49031C44.8907 8.06676 46.7413 7.38135 49.0149 7.38135C50.4954 7.38135 51.8701 7.75042 53.0334 8.43583C54.2495 9.12124 55.1484 10.123 55.73 11.3357L52.9276 12.8647C52.0288 11.3357 50.7069 10.5975 49.0678 10.5975C47.7988 10.5975 46.7942 11.0193 45.9482 11.8629C45.155 12.6538 44.732 13.7082 44.732 14.9736C44.732 16.239 45.155 17.2407 45.9482 18.0843C46.7413 18.9279 47.7459 19.3497 48.962 19.3497C49.7551 19.3497 50.4954 19.1388 51.2356 18.717C51.9759 18.2952 52.5046 17.768 52.8219 17.0826L55.6242 18.717C54.9897 19.877 54.0909 20.826 52.8748 21.5114C51.6586 22.1441 50.3368 22.4604 48.8563 22.4604Z" fill="#2FAD6F"/>
<path d="M71.8568 14.6573C71.8568 15.1318 71.8039 15.6063 71.751 16.1863H60.7531C60.9646 17.188 61.4933 18.0316 62.2335 18.6116C62.9738 19.1916 63.9784 19.5079 65.1945 19.5079C66.9394 19.5079 68.5256 19.0334 69.9533 18.0316L71.328 20.5097C69.5303 21.8278 67.4153 22.5132 65.0359 22.5132C63.714 22.5132 62.5508 22.3023 61.5462 21.8805C60.5416 21.4587 59.6956 20.8787 59.0611 20.1933C58.4266 19.4552 57.9507 18.6643 57.6863 17.8207C57.3691 16.9244 57.2104 16.0281 57.2104 15.0264C57.2104 12.8119 57.8978 11.0193 59.2726 9.6485C60.7002 8.22495 62.4979 7.48682 64.7187 7.48682C66.7808 7.48682 68.5256 8.11951 69.8475 9.43761C71.1694 10.6503 71.8568 12.3902 71.8568 14.6573ZM64.6658 10.2812C63.6612 10.2812 62.8152 10.5975 62.0749 11.1775C61.3876 11.7575 60.9117 12.5483 60.7002 13.5501H68.4199C68.2613 12.5483 67.8911 11.7575 67.2038 11.1775C66.5164 10.5975 65.6704 10.2812 64.6658 10.2812Z" fill="#2FAD6F"/>
<path d="M77.9903 22.1441H74.5534V7.75042H77.9374V9.75393C78.3075 9.01579 78.942 8.43583 79.7351 8.01404C80.5283 7.59224 81.48 7.38135 82.4846 7.38135C84.0709 7.38135 85.3927 7.90859 86.5031 8.96307C87.6135 10.0176 88.1422 11.4938 88.1422 13.3919V22.1968H84.6525V14.3409C84.6525 13.181 84.3881 12.232 83.8065 11.5465C83.2249 10.8611 82.4846 10.5448 81.48 10.5448C80.4754 10.5448 79.6294 10.9139 78.942 11.5993C78.3075 12.3374 77.9374 13.2337 77.9374 14.3936L77.9903 22.1441Z" fill="#2FAD6F"/>
<path d="M115.478 14.6573C115.478 15.1318 115.426 15.6063 115.373 16.1863H104.375C104.586 17.188 105.115 18.0316 105.855 18.6116C106.595 19.1916 107.6 19.5079 108.816 19.5079C110.561 19.5079 112.147 19.0334 113.575 18.0316L114.95 20.5097C113.152 21.8278 111.037 22.5132 108.658 22.5132C107.336 22.5132 106.173 22.3023 105.168 21.8805C104.163 21.4587 103.317 20.8787 102.683 20.1933C102.048 19.4552 101.572 18.6643 101.308 17.8207C100.991 16.9244 100.832 16.0281 100.832 15.0264C100.832 12.8119 101.52 11.0193 102.894 9.6485C104.322 8.22495 106.12 7.48682 108.34 7.48682C110.402 7.48682 112.147 8.11951 113.469 9.43761C114.844 10.6503 115.478 12.3902 115.478 14.6573ZM108.34 10.2812C107.336 10.2812 106.49 10.5975 105.75 11.1775C105.062 11.7575 104.586 12.5483 104.375 13.5501H112.094C111.936 12.5483 111.566 11.7575 110.878 11.1775C110.191 10.5975 109.345 10.2812 108.34 10.2812Z" fill="#2FAD6F"/>
<path d="M121.665 22.1441H118.175V7.75042H121.506V9.75393C122.405 8.17221 123.727 7.38135 125.525 7.38135C126.106 7.38135 126.688 7.4868 127.27 7.69769L126.952 11.0193C126.318 10.8084 125.789 10.703 125.26 10.703C124.15 10.703 123.251 11.072 122.617 11.8102C121.982 12.5483 121.612 13.6555 121.612 15.1318V22.1441H121.665Z" fill="#2FAD6F"/>
<path d="M135.518 22.4604C133.297 22.4604 131.447 21.775 130.019 20.3515C128.591 18.9279 127.904 17.1353 127.904 14.9209C127.904 12.7065 128.644 10.9139 130.072 9.49031C131.552 8.06676 133.403 7.38135 135.677 7.38135C137.157 7.38135 138.532 7.75042 139.695 8.43583C140.911 9.12124 141.81 10.123 142.392 11.3357L139.589 12.8647C138.69 11.3357 137.369 10.5975 135.729 10.5975C134.46 10.5975 133.456 11.0193 132.61 11.8629C131.817 12.6538 131.394 13.7082 131.394 14.9736C131.394 16.239 131.817 17.2407 132.61 18.0843C133.403 18.9279 134.408 19.3497 135.624 19.3497C136.417 19.3497 137.157 19.1388 137.897 18.717C138.638 18.2952 139.166 17.768 139.484 17.0826L142.286 18.717C141.651 19.877 140.753 20.826 139.536 21.5114C138.32 22.1441 136.998 22.4604 135.518 22.4604Z" fill="#2FAD6F"/>
<path d="M148.437 21.763H145V7.36931H148.331V9.37283C149.23 7.79111 150.552 7.00024 152.35 7.00024C152.931 7.00024 153.513 7.10569 154.095 7.31659L153.777 10.6382C153.143 10.4273 152.614 10.3219 152.085 10.3219C150.975 10.3219 150.076 10.6909 149.442 11.4291C148.807 12.1672 148.437 13.2744 148.437 14.7507V21.763Z" fill="#2FAD6F"/>
<path d="M169.041 14.6573C169.041 15.1318 168.988 15.6063 168.935 16.1863H157.937C158.148 17.188 158.677 18.0316 159.417 18.6116C160.158 19.1916 161.162 19.5079 162.378 19.5079C164.123 19.5079 165.709 19.0334 167.137 18.0316L168.512 20.5097C166.714 21.8278 164.599 22.5132 162.22 22.5132C160.898 22.5132 159.735 22.3023 158.73 21.8805C157.725 21.4587 156.879 20.8787 156.245 20.1933C155.61 19.4552 155.135 18.6643 154.87 17.8207C154.553 16.9244 154.394 16.0281 154.394 15.0264C154.394 12.8119 155.082 11.0193 156.456 9.6485C157.884 8.22495 159.682 7.48682 161.903 7.48682C163.965 7.48682 165.709 8.11951 167.031 9.43761C168.353 10.6503 169.041 12.3902 169.041 14.6573ZM161.903 10.2812C160.898 10.2812 160.052 10.5975 159.312 11.1775C158.624 11.7575 158.148 12.5483 157.937 13.5501H165.657C165.498 12.5483 165.128 11.7575 164.44 11.1775C163.7 10.5975 162.854 10.2812 161.903 10.2812Z" fill="#2FAD6F"/>
<path d="M182.682 9.59593V2.00366H186.119V22.197H182.735V20.2989C181.519 21.7752 179.986 22.5133 178.135 22.5133C176.073 22.5133 174.328 21.7752 173.006 20.3516C171.631 18.8754 170.944 17.0827 170.944 14.9211C170.944 12.8121 171.631 11.0195 173.006 9.5432C174.381 8.06693 176.073 7.38152 178.135 7.38152C179.986 7.38152 181.466 8.11966 182.682 9.59593ZM178.611 19.3499C179.88 19.3499 180.885 18.9281 181.678 18.0845C182.471 17.2409 182.841 16.1864 182.841 14.9738C182.841 13.7611 182.418 12.7066 181.625 11.8631C180.885 11.0195 179.827 10.5977 178.611 10.5977C177.342 10.5977 176.337 11.0195 175.597 11.8631C174.804 12.7066 174.434 13.7611 174.434 14.9738C174.434 16.1864 174.804 17.2409 175.597 18.0845C176.337 18.9281 177.395 19.3499 178.611 19.3499Z" fill="#2FAD6F"/>
<path d="M191.512 6.01062C190.878 6.01062 190.349 5.79972 189.926 5.37793C189.503 4.95614 189.292 4.4289 189.292 3.79621C189.292 3.16352 189.503 2.63628 189.926 2.26721C190.349 1.84542 190.878 1.63452 191.512 1.63452C192.147 1.63452 192.676 1.84542 193.046 2.26721C193.469 2.689 193.68 3.21624 193.68 3.79621C193.68 4.4289 193.469 4.95614 193.046 5.37793C192.676 5.79972 192.147 6.01062 191.512 6.01062ZM193.204 7.75051V22.1442H189.715V7.75051H193.204Z" fill="#2FAD6F"/>
<path d="M204.89 18.6116L206 21.3006C204.89 22.0914 203.462 22.5132 201.823 22.5132C198.545 22.5132 196.853 20.6151 196.853 16.8717L196.906 2.63623H200.342V7.75047H205.207V10.6503H200.342V16.7136C200.342 18.4535 201.03 19.297 202.457 19.297C203.251 19.3498 204.044 19.0861 204.89 18.6116Z" fill="#2FAD6F"/>
<path d="M98.8758 18.6116L99.9861 21.3006C98.8758 22.0914 97.4481 22.5132 95.809 22.5132C92.5308 22.5132 90.8388 20.6151 90.8388 16.8717L90.8917 2.63623H94.3285V7.75047H99.193V10.6503H94.3285V16.7136C94.3285 18.4535 95.0159 19.297 96.4435 19.297C97.2366 19.3498 98.0826 19.0861 98.8758 18.6116Z" fill="#2FAD6F"/>
</g>
<defs>
<clipPath id="clip0_10_394">
<rect width="206" height="30" fill="white"/>
</clipPath>
</defs>
</svg>
