<svg width="40" height="40" viewBox="0 0 40 40" fill="none" xmlns="http://www.w3.org/2000/svg">
<path d="M36.6667 19.9999C36.6667 31.111 31.1112 36.6666 20 36.6666C8.88893 36.6666 3.33337 31.111 3.33337 19.9999C3.33337 8.88881 8.88893 3.33325 20 3.33325C31.1112 3.33325 36.6667 8.88881 36.6667 19.9999Z" fill="#27AE60"/>
<path fill-rule="evenodd" clip-rule="evenodd" d="M29.5804 16.1206L20.0082 25.8304C20.0038 25.8349 19.9989 25.8398 19.9937 25.8451C19.9368 25.9031 19.8338 26.0078 19.7298 26.0967C19.6034 26.2048 19.3545 26.3986 18.989 26.5059C18.5523 26.634 18.0851 26.6095 17.6643 26.4363C17.312 26.2912 17.0848 26.0724 16.9704 25.9517C16.8763 25.8524 16.7849 25.7374 16.7344 25.6738C16.7297 25.668 16.7254 25.6626 16.7215 25.6577L11.9334 19.654L14.5394 17.5756L18.5311 22.5807L27.2066 13.7804L29.5804 16.1206Z" fill="#D3F1DA"/>
</svg>
