<svg width="40" height="40" viewBox="0 0 40 40" fill="none" xmlns="http://www.w3.org/2000/svg">
<path d="M5 13C5 10.1997 5 8.79961 5.54497 7.73005C6.02433 6.78924 6.78924 6.02433 7.73005 5.54497C8.79961 5 10.1997 5 13 5H27C29.8003 5 31.2004 5 32.27 5.54497C33.2108 6.02433 33.9757 6.78924 34.455 7.73005C35 8.79961 35 10.1997 35 13V27C35 29.8003 35 31.2004 34.455 32.27C33.9757 33.2108 33.2108 33.9757 32.27 34.455C31.2004 35 29.8003 35 27 35H13C10.1997 35 8.79961 35 7.73005 34.455C6.78924 33.9757 6.02433 33.2108 5.54497 32.27C5 31.2004 5 29.8003 5 27V13Z" fill="#27AE60"/>
<path d="M8.33337 18.3333L14.1667 18.3333V25.8333H8.33337V18.3333Z" fill="#D3F1DA"/>
<path d="M17.0834 15H22.9167V25.8333H17.0834V15Z" fill="#D3F1DA"/>
<path d="M8.33337 28.3333H31.6667C31.6667 29.1082 31.6667 29.4957 31.5815 29.8136C31.3504 30.6764 30.6765 31.3502 29.8138 31.5814C29.4958 31.6666 29.1083 31.6666 28.3334 31.6666H11.6667C10.8917 31.6666 10.5042 31.6666 10.1863 31.5814C9.3236 31.3502 8.64973 30.6764 8.41856 29.8136C8.33337 29.4957 8.33337 29.1082 8.33337 28.3333Z" fill="#D3F1DA"/>
<path d="M25.8334 10H31.6667V25.8333H25.8334V10Z" fill="#D3F1DA"/>
<path d="M40 32.5C40 37.5 37.5 40 32.5 40C27.5 40 25 37.5 25 32.5C25 27.5 27.5 25 32.5 25C37.5 25 40 27.5 40 32.5Z" fill="#27AE60"/>
<path d="M31.25 32.4089H33.75L33.7796 37.5001H31.2796L31.25 32.4089Z" fill="#D3F1DA"/>
<path d="M36.6666 31.6667L36.6666 34.1667L28.3333 34.1667L28.3333 31.6667L36.6666 31.6667Z" fill="#D3F1DA"/>
<path d="M36.6666 27.5L36.6666 30L28.3333 30L28.3333 27.5L36.6666 27.5Z" fill="#D3F1DA"/>
</svg>
